<?xml version="1.0" encoding="utf-8"?>
<!-- Generator: Adobe Illustrator 22.0.1, SVG Export Plug-In . SVG Version: 6.00 Build 0)  -->
<!DOCTYPE svg PUBLIC "-//W3C//DTD SVG 1.1//EN" "http://www.w3.org/Graphics/SVG/1.1/DTD/svg11.dtd">
<svg version="1.1" id="Layer_1" xmlns="http://www.w3.org/2000/svg" xmlns:xlink="http://www.w3.org/1999/xlink" x="0px" y="0px"
	 viewBox="0 0 650.8 128.2" style="enable-background:new 0 0 650.8 128.2;" xml:space="preserve">
<style type="text/css">
	.st0{fill:#FFFFFF;}
	.st1{fill:#FBDD40;}
	.st2{fill:#F6BE00;}
</style>
<g>
	<path class="st0" d="M146.8,37.6c-14.7,0-26.6,11.9-26.6,26.6c0,14.7,11.9,26.6,26.6,26.6c14.7,0,26.6-11.9,26.6-26.6
		C173.4,49.6,161.5,37.6,146.8,37.6 M170.4,62.8h-9.1c-0.3-8.8-2.8-16.4-6.6-20.8C163.4,45,169.8,53.1,170.4,62.8z M158.2,62.8h-9.9
		V41.1C153.6,42.6,157.9,51.8,158.2,62.8z M145.3,41.1v21.6h-9.9C135.7,51.8,140,42.6,145.3,41.1z M139,42
		c-3.8,4.4-6.4,11.9-6.6,20.8h-9.1C123.8,53.1,130.3,45,139,42z M123.2,65.7h9.1c0.3,8.9,2.8,16.4,6.6,20.8
		C130.3,83.5,123.8,75.4,123.2,65.7z M135.4,65.7h9.9v21.7C140,85.9,135.7,76.7,135.4,65.7z M148.3,87.4V65.7h9.9
		C157.9,76.7,153.6,85.9,148.3,87.4z M154.6,86.5c3.8-4.4,6.4-11.9,6.6-20.8h9.1C169.8,75.4,163.4,83.5,154.6,86.5z"/>
	<path class="st1" d="M186,90.2c-8.4,12.7-22.8,21-39.2,21V126c21.5,0,40.4-11,51.4-27.6L186,90.2 M146.8,2.5L146.8,2.5
		c-20,0-37.7,9.5-49,24.2l11.7,9c8.6-11.2,22.1-18.4,37.3-18.4h0V2.5z"/>
	<path class="st2" d="M187,64.3c0,15.5-8.8,28.9-21.6,35.6l0.9,1.6c13.4-7,22.6-21.1,22.6-37.3h12c0-29.8-24.2-54-54-54v13.8
		C169,24.1,187,42.1,187,64.3"/>
	<path class="st2" d="M106.6,64.3c0-15.5,8.8-28.9,21.6-35.6l-0.9-1.6c-13.4,7-22.6,21.1-22.6,37.3h-12c0,29.8,24.2,54,54,54v-13.8
		C124.6,104.4,106.6,86.4,106.6,64.3"/>
	<polyline class="st0" points="1.5,38.2 29.1,38.2 36.5,63.1 49.8,38.2 66.4,38.2 78.6,63.1 86.5,38.2 107.8,38.2 87.1,90.3 
		68.9,90.3 54.5,64.3 38.6,90.3 21,90.3 1.5,38.2 	"/>
	<polyline class="st0" points="279.2,38.2 307.9,38.2 307.9,78.6 338.6,78.6 338.6,90.3 279.2,90.3 279.2,38.2 	"/>
	<path class="st0" d="M345.4,38.2h32.7c15.4,0,23.4,0.7,31,4.1c9.6,4.2,16,12.2,16,21.7c0,6.3-3.1,13.4-9.9,18.6
		c-10.3,7.8-23.6,7.8-33.5,7.8h-36.4V38.2 M373.9,78.8c5.6,0,9.2,0,13-1.6c3.2-1.4,8.6-5.5,8.6-13c0-2.9-1.2-8-5.7-11.2
		c-4.2-3-9-3-15.8-3V78.8z"/>
	<polyline class="st0" points="432.3,38.2 450,38.2 483.6,62.9 483.6,38.2 504.5,38.2 504.5,90.3 489.6,90.3 453.2,63.9 453.2,90.3 
		432.3,90.3 432.3,38.2 	"/>
	<polyline class="st0" points="575.9,38.2 575.9,50 545.2,50 545.2,58.1 570.6,58.1 570.6,68.7 545.2,68.7 545.2,78.6 580.1,78.6 
		580.1,90.3 516.8,90.3 516.8,38.2 575.9,38.2 	"/>
	<polyline class="st0" points="581.3,38.2 648.3,38.2 648.3,50 629.3,50 629.3,90.3 600.9,90.3 600.9,50 581.3,50 581.3,38.2 	"/>
	<path class="st0" d="M193.3,38.2c0,0,44.2,0,47.6,0c3.4,0,25.3-0.2,26.3,14.6c0.6,9.2-13.1,13.3-13.1,13.3s8.2,13.7,17.1,24h-28.6
		c0,0-13.5-17.1-16-23.6c0,0,9.2-4,11.2-8.6c2.8-6.7-0.9-9-16.5-9v41.5h-28.1L193.3,38.2"/>
</g>
</svg>
